<svg width="103" height="73" viewBox="0 0 103 73" fill="none" xmlns="http://www.w3.org/2000/svg">
<path d="M27.767 17.5946C29.3559 10.0315 24.577 2.62581 17.0929 1.05341C9.6089 -0.518972 2.25376 4.33736 0.664771 11.9004C-0.924186 19.4633 3.85472 26.869 11.3388 28.4414C18.8228 30.0138 26.178 25.1575 27.767 17.5946Z" fill="url(#paint0_linear_656_9196)"/>
<path d="M48.7837 52.2526C50.3727 44.6896 45.5939 37.284 38.1098 35.7116C30.6257 34.1392 23.2706 38.9955 21.6817 46.5585C20.0927 54.1215 24.8715 61.5272 32.3557 63.0996C39.8397 64.672 47.1947 59.8156 48.7837 52.2526Z" fill="url(#paint1_linear_656_9196)"/>
<path d="M81.3432 28.0098C82.9322 20.4467 78.1534 13.0411 70.6692 11.4686C63.1852 9.89625 55.8301 14.7526 54.2412 22.3157C52.6522 29.8786 57.431 37.2842 64.915 38.8566C72.3992 40.429 79.7542 35.5727 81.3432 28.0098Z" fill="url(#paint2_linear_656_9196)"/>
<path d="M101.894 60.9243C103.483 53.3614 98.7042 45.9557 91.2201 44.3833C83.7361 42.8109 76.3809 47.6672 74.792 55.2301C73.203 62.7932 77.9819 70.1989 85.466 71.7713C92.95 73.3437 100.305 68.4873 101.894 60.9243Z" fill="url(#paint3_linear_656_9196)"/>
<path d="M37.813 33.1627C28.5663 31.22 27.594 20.3984 28.0134 16.4214L10.6609 27.8786C14.4291 29.0908 23.8433 34.6855 21.9281 45.3854C43.7933 50.6521 49.1066 51.3759 49.0302 51.0795C50.7619 39.6681 62.6984 38.6714 67.2718 39.3519L54.3184 21.9481C52.8361 25.7018 47.0596 35.1054 37.813 33.1627Z" fill="url(#paint4_linear_656_9196)"/>
<defs>
<linearGradient id="paint0_linear_656_9196" x1="0.29845" y1="36.5582" x2="102.259" y2="36.846" gradientUnits="userSpaceOnUse">
<stop stop-color="#06C7F4"/>
<stop offset="0.5" stop-color="#0B7BF3"/>
<stop offset="1" stop-color="#1029F5"/>
</linearGradient>
<linearGradient id="paint1_linear_656_9196" x1="0.29845" y1="36.5582" x2="102.259" y2="36.846" gradientUnits="userSpaceOnUse">
<stop stop-color="#06C7F4"/>
<stop offset="0.5" stop-color="#0B7BF3"/>
<stop offset="1" stop-color="#1029F5"/>
</linearGradient>
<linearGradient id="paint2_linear_656_9196" x1="0.29845" y1="36.5582" x2="102.259" y2="36.846" gradientUnits="userSpaceOnUse">
<stop stop-color="#06C7F4"/>
<stop offset="0.5" stop-color="#0B7BF3"/>
<stop offset="1" stop-color="#1029F5"/>
</linearGradient>
<linearGradient id="paint3_linear_656_9196" x1="0.29845" y1="36.5582" x2="102.259" y2="36.846" gradientUnits="userSpaceOnUse">
<stop stop-color="#06C7F4"/>
<stop offset="0.5" stop-color="#0B7BF3"/>
<stop offset="1" stop-color="#1029F5"/>
</linearGradient>
<linearGradient id="paint4_linear_656_9196" x1="0.29845" y1="36.5582" x2="102.259" y2="36.846" gradientUnits="userSpaceOnUse">
<stop stop-color="#06C7F4"/>
<stop offset="0.5" stop-color="#0B7BF3"/>
<stop offset="1" stop-color="#1029F5"/>
</linearGradient>
</defs>
</svg>
