<svg width="16" height="10" viewBox="0 0 16 10" fill="none" xmlns="http://www.w3.org/2000/svg">
<path d="M12.5049 5.36156C12.2612 5.03431 12.3309 4.88871 12.5049 4.59619C12.508 4.59285 14.5192 1.63692 14.7264 0.634464L14.7277 0.633796C14.8307 0.268479 14.7277 0 14.2297 0H12.5821C12.1627 0 11.9693 0.230411 11.8657 0.488204C11.8657 0.488204 11.0268 2.62401 9.84001 4.00848C9.45698 4.40852 9.27991 4.53675 9.07082 4.53675C8.96784 4.53675 8.80772 4.40852 8.80772 4.04321V0.633796C8.80772 0.195682 8.6903 0 8.34307 0H5.7523C5.48921 0 5.33286 0.204364 5.33286 0.394704C5.33286 0.810111 5.92623 0.905614 5.98777 2.07436V4.61022C5.98777 5.16588 5.89295 5.26806 5.6826 5.26806C5.12251 5.26806 3.76308 3.12357 2.95747 0.669193C2.79484 0.193011 2.63597 0.000667809 2.21339 0.000667809H0.565121C0.0948147 0.000667809 0 0.231079 0 0.488871C0 0.94435 0.560097 3.20905 2.60458 6.20105C3.96715 8.24336 5.88605 9.35 7.63164 9.35C8.68088 9.35 8.80898 9.10423 8.80898 8.68148C8.80898 6.73 8.71416 6.54567 9.23973 6.54567C9.48335 6.54567 9.9028 6.6739 10.8823 7.65899C12.0019 8.82707 12.1859 9.35 12.8125 9.35H14.4602C14.9299 9.35 15.1678 9.10423 15.031 8.61936C14.7176 7.59955 12.6003 5.50181 12.5049 5.36156Z" fill="white"/>
</svg>
