<svg width="87" height="86" viewBox="0 0 87 86" fill="none" xmlns="http://www.w3.org/2000/svg">
<path d="M46.229 19.5307C45.5084 17.2398 42.4905 17.2398 41.7699 19.5307C40.7251 22.8525 37.6904 25.1862 34.1746 25.1862C33.0869 25.1862 32.2751 25.8552 31.9451 26.9044C31.613 27.9601 31.8843 29.0691 32.8268 29.7765C35.6143 31.8686 36.7384 35.5272 35.6978 38.8353C35.3137 40.0566 35.7734 41.1023 36.5795 41.7073C37.3725 42.3025 38.3655 42.3901 39.2752 41.7073C42.0858 39.5979 45.9131 39.5979 48.7237 41.7073C49.6334 42.3901 50.6264 42.3025 51.4194 41.7073C52.2255 41.1024 52.6852 40.0566 52.3011 38.8353C51.2605 35.5272 52.3846 31.8686 55.1721 29.7765C56.1147 29.0691 56.3859 27.9601 56.0538 26.9044C55.7238 25.8552 54.9121 25.1862 53.8243 25.1862C50.3085 25.1862 47.2738 22.8525 46.229 19.5307Z" fill="url(#paint0_linear_2009_552)"/>
<path fill-rule="evenodd" clip-rule="evenodd" d="M11.1869 33.75C11.1869 15.6282 25.8776 0.93751 43.9994 0.93751C62.1213 0.93751 76.8119 15.6282 76.8119 33.75C76.8119 35.3515 76.697 36.9268 76.4749 38.4681C75.9999 39.7299 75.4535 40.9566 74.8406 42.1432C69.9216 51.6679 60.7226 58.6171 49.8012 60.4549C47.9165 60.7721 45.9784 60.9375 43.9996 60.9375C41.6857 60.9375 39.4274 60.7113 37.2448 60.2807C26.5487 58.1706 17.609 51.1357 12.8984 41.6292C12.3899 40.6029 11.9306 39.5478 11.5238 38.4669C11.3018 36.926 11.1869 35.351 11.1869 33.75ZM36.4041 17.843C38.776 10.3024 49.223 10.3024 51.5948 17.843C51.933 18.918 52.8647 19.5612 53.8243 19.5612C61.7333 19.5612 64.5948 29.7376 58.5486 34.2754C57.7154 34.9007 57.3244 36.0588 57.6669 37.1475C58.829 40.842 57.3385 44.2979 54.7958 46.2062C52.24 48.1244 48.4856 48.5616 45.3473 46.2062C44.5372 45.5983 43.4617 45.5983 42.6516 46.2062C39.5133 48.5616 35.7589 48.1244 33.2031 46.2062C30.6604 44.2979 29.1699 40.842 30.332 37.1475C30.6745 36.0588 30.2835 34.9007 29.4503 34.2754C23.4041 29.7376 26.2656 19.5612 34.1746 19.5612C35.1342 19.5612 36.066 18.918 36.4041 17.843Z" fill="url(#paint1_linear_2009_552)"/>
<path d="M11.238 49.7447C10.9056 50.3073 10.5554 50.9141 10.1783 51.5676L3.33084 63.4277C2.48533 64.8916 1.70352 66.2453 1.25278 67.3659C0.811281 68.4635 0.255258 70.3668 1.48399 72.1285C2.72828 73.9126 4.72562 74.0183 5.90933 73.9595C7.10781 73.8999 8.63137 73.6 10.268 73.2778L13.2352 72.6942C14.8802 72.3706 15.8562 72.184 16.5803 72.1342C16.9111 72.1114 17.0886 72.1267 17.176 72.1414C17.2162 72.1482 17.2398 72.1561 17.2398 72.1561L17.2509 72.1613L17.2608 72.1682C17.2608 72.1682 17.2796 72.1848 17.3055 72.2162C17.3619 72.2845 17.4639 72.4306 17.6096 72.7284C17.9285 73.3804 18.2549 74.319 18.7972 75.9053L19.7752 78.7666C20.3146 80.3452 20.8167 81.8147 21.3643 82.8824C21.9052 83.937 22.9955 85.6138 25.1626 85.7994C27.3027 85.9827 28.673 84.5495 29.4028 83.6183C30.1479 82.6677 30.9294 81.3137 31.7745 79.8494L38.4842 68.2277C38.8836 67.536 39.2487 66.9035 39.5778 66.3225C38.4223 66.1964 37.281 66.0213 36.1561 65.7994C25.9286 63.7817 17.0972 57.9011 11.238 49.7447Z" fill="url(#paint2_linear_2009_552)"/>
<path d="M76.1797 50.5338C76.35 50.8273 76.5252 51.1311 76.7065 51.4455L83.6244 63.4278C84.4698 64.8916 85.2517 66.2454 85.7024 67.3659C86.1439 68.4635 86.6999 70.3668 85.4712 72.1285C84.2269 73.9126 82.2295 74.0183 81.0458 73.9595C79.8474 73.8999 78.3238 73.6 76.6872 73.2778L73.7199 72.6942C72.0749 72.3706 71.099 72.184 70.3748 72.1342C70.0441 72.1114 69.8665 72.1267 69.7791 72.1414C69.739 72.1482 69.7153 72.1561 69.7153 72.1561L69.7043 72.1613L69.6991 72.1645L69.6944 72.1682C69.6944 72.1682 69.6756 72.1848 69.6497 72.2162C69.5933 72.2845 69.4913 72.4306 69.3456 72.7284C69.0267 73.3804 68.7003 74.319 68.158 75.9053L67.1799 78.7666C66.6406 80.3451 66.1385 81.8147 65.5908 82.8824C65.05 83.937 63.9597 85.6138 61.7925 85.7994C59.6525 85.9827 58.2822 84.5495 57.5524 83.6183C56.8073 82.6677 56.0258 81.3137 55.1807 79.8495L48.4707 68.2273C48.0933 67.5737 47.7465 66.9729 47.4316 66.4183C48.5457 66.3243 49.6474 66.1849 50.7347 66.0019C61.0956 64.2584 70.1082 58.5674 76.1797 50.5338Z" fill="url(#paint3_linear_2009_552)"/>
<defs>
<linearGradient id="paint0_linear_2009_552" x1="0.736328" y1="43.3765" x2="86.2188" y2="43.3765" gradientUnits="userSpaceOnUse">
<stop stop-color="#06C7F4"/>
<stop offset="0.5" stop-color="#0B7BF3"/>
<stop offset="1" stop-color="#1029F5"/>
</linearGradient>
<linearGradient id="paint1_linear_2009_552" x1="0.736328" y1="43.3765" x2="86.2188" y2="43.3765" gradientUnits="userSpaceOnUse">
<stop stop-color="#06C7F4"/>
<stop offset="0.5" stop-color="#0B7BF3"/>
<stop offset="1" stop-color="#1029F5"/>
</linearGradient>
<linearGradient id="paint2_linear_2009_552" x1="0.736328" y1="43.3765" x2="86.2188" y2="43.3765" gradientUnits="userSpaceOnUse">
<stop stop-color="#06C7F4"/>
<stop offset="0.5" stop-color="#0B7BF3"/>
<stop offset="1" stop-color="#1029F5"/>
</linearGradient>
<linearGradient id="paint3_linear_2009_552" x1="0.736328" y1="43.3765" x2="86.2188" y2="43.3765" gradientUnits="userSpaceOnUse">
<stop stop-color="#06C7F4"/>
<stop offset="0.5" stop-color="#0B7BF3"/>
<stop offset="1" stop-color="#1029F5"/>
</linearGradient>
</defs>
</svg>
