<svg width="66" height="82" viewBox="0 0 66 82" fill="none" xmlns="http://www.w3.org/2000/svg">
<path d="M33 0.6875C23.1624 0.6875 15.1875 8.66243 15.1875 18.5V33.5C15.1875 43.3376 23.1624 51.3125 33 51.3125C42.8376 51.3125 50.8125 43.3376 50.8125 33.5V18.5C50.8125 8.66243 42.8376 0.6875 33 0.6875Z" fill="url(#paint0_linear_2009_538)"/>
<path d="M5.8125 33.5C5.8125 31.9467 4.5533 30.6875 3 30.6875C1.4467 30.6875 0.1875 31.9467 0.1875 33.5C0.1875 50.6744 13.3822 64.7671 30.1875 66.1937V74.5738C29.3759 74.6805 28.5688 74.8337 27.7703 75.0334L24.8179 75.7715C23.3109 76.1482 22.3947 77.6752 22.7715 79.1821C23.1482 80.6891 24.6752 81.6053 26.1821 81.2285L29.1346 80.4904C30.4035 80.1732 31.7018 80.0146 33 80.0146C34.2982 80.0146 35.5965 80.1732 36.8654 80.4904L39.8179 81.2285C41.3248 81.6053 42.8518 80.6891 43.2285 79.1821C43.6053 77.6752 42.6891 76.1482 41.1821 75.7715L38.2297 75.0334C37.4312 74.8337 36.6241 74.6805 35.8125 74.5738V66.1937C52.6178 64.7671 65.8125 50.6744 65.8125 33.5C65.8125 31.9467 64.5533 30.6875 63 30.6875C61.4467 30.6875 60.1875 31.9467 60.1875 33.5C60.1875 48.5152 48.0152 60.6875 33 60.6875C17.9848 60.6875 5.8125 48.5152 5.8125 33.5Z" fill="url(#paint1_linear_2009_538)"/>
<defs>
<linearGradient id="paint0_linear_2009_538" x1="0.1875" y1="41.0003" x2="65.8125" y2="41.0003" gradientUnits="userSpaceOnUse">
<stop stop-color="#06C7F4"/>
<stop offset="0.5" stop-color="#0B7BF3"/>
<stop offset="1" stop-color="#1029F5"/>
</linearGradient>
<linearGradient id="paint1_linear_2009_538" x1="0.1875" y1="41.0003" x2="65.8125" y2="41.0003" gradientUnits="userSpaceOnUse">
<stop stop-color="#06C7F4"/>
<stop offset="0.5" stop-color="#0B7BF3"/>
<stop offset="1" stop-color="#1029F5"/>
</linearGradient>
</defs>
</svg>
