<svg width="78" height="78" viewBox="0 0 78 78" fill="none" xmlns="http://www.w3.org/2000/svg">
<path d="M11.6875 18.5625C11.6875 8.72493 19.6624 0.75 29.5 0.75C39.3376 0.75 47.3125 8.72493 47.3125 18.5625C47.3125 28.4001 39.3376 36.375 29.5 36.375C19.6624 36.375 11.6875 28.4001 11.6875 18.5625Z" fill="url(#paint0_linear_2009_460)"/>
<path d="M0.4375 59.8125C0.4375 49.9749 8.41243 42 18.25 42H40.75C48.3895 42 54.9057 46.8093 57.4362 53.5654L56.2779 54.8592C53.6736 57.768 52.211 59.3758 51.0625 60.3553C49.914 59.3758 48.4514 57.768 45.8471 54.8592L42.5877 51.2186C39.8248 48.1326 35.0833 47.8707 31.9973 50.6336C28.9113 53.3965 28.6493 58.138 31.4123 61.2241L34.9625 65.1896C37.2119 67.7031 39.3993 70.1474 41.4778 71.8943C43.4262 73.532 45.8952 75.0999 49.0221 75.5918C46.5503 76.8903 43.7359 77.625 40.75 77.625H18.25C8.41243 77.625 0.4375 69.6501 0.4375 59.8125Z" fill="url(#paint1_linear_2009_460)"/>
<path d="M76.5954 47.626C77.6315 46.4688 77.5333 44.6907 76.376 43.6546C75.2188 42.6185 73.4407 42.7167 72.4046 43.874L59.7702 57.9859C57.2101 60.8454 55.486 62.761 54.0119 64C52.6077 65.1802 51.783 65.4375 51.0625 65.4375C50.342 65.4375 49.5173 65.1802 48.113 64C46.639 62.761 44.9149 60.8454 42.3548 57.9859L39.0954 54.3453C38.0593 53.1881 36.2812 53.0899 35.124 54.126C33.9667 55.1621 33.8685 56.9401 34.9046 58.0974L38.3032 61.8935C40.6877 64.5569 42.6765 66.7785 44.4938 68.306C46.4162 69.9218 48.4897 71.0625 51.0625 71.0625C53.6353 71.0625 55.7088 69.9218 57.6312 68.306C59.4485 66.7786 61.4373 64.557 63.8217 61.8935L76.5954 47.626Z" fill="url(#paint2_linear_2009_460)"/>
<defs>
<linearGradient id="paint0_linear_2009_460" x1="0.4375" y1="39.1875" x2="77.3125" y2="39.1875" gradientUnits="userSpaceOnUse">
<stop stop-color="#06C7F4"/>
<stop offset="0.5" stop-color="#0B7BF3"/>
<stop offset="1" stop-color="#1029F5"/>
</linearGradient>
<linearGradient id="paint1_linear_2009_460" x1="0.4375" y1="39.1875" x2="77.3125" y2="39.1875" gradientUnits="userSpaceOnUse">
<stop stop-color="#06C7F4"/>
<stop offset="0.5" stop-color="#0B7BF3"/>
<stop offset="1" stop-color="#1029F5"/>
</linearGradient>
<linearGradient id="paint2_linear_2009_460" x1="0.4375" y1="39.1875" x2="77.3125" y2="39.1875" gradientUnits="userSpaceOnUse">
<stop stop-color="#06C7F4"/>
<stop offset="0.5" stop-color="#0B7BF3"/>
<stop offset="1" stop-color="#1029F5"/>
</linearGradient>
</defs>
</svg>
