<svg width="84" height="84" viewBox="0 0 84 84" fill="none" xmlns="http://www.w3.org/2000/svg">
<path fill-rule="evenodd" clip-rule="evenodd" d="M42.0007 83.6667C65.0125 83.6667 83.6673 65.0119 83.6673 42C83.6673 18.9882 65.0125 0.333374 42.0007 0.333374C18.9888 0.333374 0.333984 18.9882 0.333984 42C0.333984 65.0119 18.9888 83.6667 42.0007 83.6667ZM65.1622 31.5845C66.3134 30.2987 66.2043 28.323 64.9185 27.1718C63.6326 26.0206 61.657 26.1297 60.5058 27.4156L46.4675 43.0955C43.623 46.2727 41.7073 48.4012 40.0695 49.7778C38.5093 51.0892 37.5929 51.375 36.7923 51.375C35.9918 51.375 35.0754 51.0892 33.5152 49.7778C31.8773 48.4012 29.9617 46.2727 27.1171 43.0955L23.4955 39.0504C22.3443 37.7646 20.3687 37.6554 19.0829 38.8067C17.797 39.9579 17.6879 41.9335 18.8391 43.2193L22.6154 47.4372C25.2647 50.3967 27.4746 52.8651 29.4938 54.5622C31.6298 56.3576 33.9337 57.625 36.7923 57.625C39.651 57.625 41.9549 56.3576 44.0909 54.5623C46.1101 52.8651 48.3199 50.3967 50.9693 47.4373L65.1622 31.5845Z" fill="url(#paint0_linear_2009_492)"/>
<defs>
<linearGradient id="paint0_linear_2009_492" x1="0.333984" y1="42" x2="83.6673" y2="42" gradientUnits="userSpaceOnUse">
<stop stop-color="#06C7F4"/>
<stop offset="0.5" stop-color="#0B7BF3"/>
<stop offset="1" stop-color="#1029F5"/>
</linearGradient>
</defs>
</svg>
