<svg width="76" height="76" viewBox="0 0 76 76" fill="none" xmlns="http://www.w3.org/2000/svg">
<path fill-rule="evenodd" clip-rule="evenodd" d="M75.5 38C75.5 58.7107 58.7107 75.5 38 75.5C17.2893 75.5 0.5 58.7107 0.5 38C0.5 17.2893 17.2893 0.5 38 0.5C58.7107 0.5 75.5 17.2893 75.5 38ZM17.9554 43.0032C19.3343 42.2882 21.0318 42.8264 21.7468 44.2054C22.756 46.1516 24.8553 48.6261 27.7689 50.6072C30.657 52.571 34.1783 53.9375 38 53.9375C41.8217 53.9375 45.343 52.571 48.2311 50.6072C51.1447 48.6261 53.244 46.1516 54.2532 44.2054C54.9682 42.8264 56.6657 42.2882 58.0446 43.0032C59.4236 43.7182 59.9618 45.4157 59.2468 46.7946C57.7559 49.6699 54.9803 52.8203 51.3939 55.2588C47.7819 57.7148 43.1783 59.5625 38 59.5625C32.8217 59.5625 28.218 57.7148 24.6061 55.2588C21.0197 52.8203 18.244 49.6699 16.7532 46.7946C16.0382 45.4157 16.5764 43.7182 17.9554 43.0032ZM26.75 26.75C28.8211 26.75 30.5 25.0711 30.5 23C30.5 20.9289 28.8211 19.25 26.75 19.25C24.6789 19.25 23 20.9289 23 23C23 25.0711 24.6789 26.75 26.75 26.75ZM49.25 26.75C51.3211 26.75 53 25.0711 53 23C53 20.9289 51.3211 19.25 49.25 19.25C47.1789 19.25 45.5 20.9289 45.5 23C45.5 25.0711 47.1789 26.75 49.25 26.75Z" fill="url(#paint0_linear_2009_522)"/>
<defs>
<linearGradient id="paint0_linear_2009_522" x1="0.5" y1="38" x2="75.5" y2="38" gradientUnits="userSpaceOnUse">
<stop stop-color="#06C7F4"/>
<stop offset="0.5" stop-color="#0B7BF3"/>
<stop offset="1" stop-color="#1029F5"/>
</linearGradient>
</defs>
</svg>
