<svg width="90" height="63" viewBox="0 0 90 63" fill="none" xmlns="http://www.w3.org/2000/svg">
<path d="M32.4399 26.8805C29.1958 23.6543 27.1875 19.1867 27.1875 14.25C27.1875 9.31333 29.1958 4.84571 32.4399 1.61955C30.5721 0.702477 28.4712 0.1875 26.25 0.1875C18.4835 0.1875 12.1875 6.4835 12.1875 14.25C12.1875 22.0165 18.4835 28.3125 26.25 28.3125C28.4712 28.3125 30.5721 27.7975 32.4399 26.8805Z" fill="url(#paint0_linear_2009_470)"/>
<path d="M30.9375 14.25C30.9375 6.4835 37.2335 0.1875 45 0.1875C52.7665 0.1875 59.0625 6.4835 59.0625 14.25C59.0625 22.0165 52.7665 28.3125 45 28.3125C37.2335 28.3125 30.9375 22.0165 30.9375 14.25Z" fill="url(#paint1_linear_2009_470)"/>
<path d="M57.5601 1.61955C60.8042 4.84571 62.8125 9.31333 62.8125 14.25C62.8125 19.1867 60.8042 23.6543 57.5601 26.8805C59.4279 27.7975 61.5288 28.3125 63.75 28.3125C71.5165 28.3125 77.8125 22.0165 77.8125 14.25C77.8125 6.4835 71.5165 0.1875 63.75 0.1875C61.5288 0.1875 59.4279 0.702477 57.5601 1.61955Z" fill="url(#paint2_linear_2009_470)"/>
<path d="M19.6875 48C19.6875 40.2335 25.9835 33.9375 33.75 33.9375H56.25C64.0165 33.9375 70.3125 40.2335 70.3125 48C70.3125 55.7665 64.0165 62.0625 56.25 62.0625H33.75C25.9835 62.0625 19.6875 55.7665 19.6875 48Z" fill="url(#paint3_linear_2009_470)"/>
<path d="M0.9375 44.25C0.9375 36.4835 7.2335 30.1875 15 30.1875H33.75C23.9124 30.1875 15.9375 38.1624 15.9375 48C15.9375 51.8433 17.1547 55.4023 19.2246 58.3125H15C7.2335 58.3125 0.9375 52.0165 0.9375 44.25Z" fill="url(#paint4_linear_2009_470)"/>
<path d="M74.0625 48C74.0625 51.8433 72.8453 55.4023 70.7754 58.3125H75C82.7665 58.3125 89.0625 52.0165 89.0625 44.25C89.0625 36.4835 82.7665 30.1875 75 30.1875H56.25C66.0876 30.1875 74.0625 38.1624 74.0625 48Z" fill="url(#paint5_linear_2009_470)"/>
<defs>
<linearGradient id="paint0_linear_2009_470" x1="0.9375" y1="31.125" x2="89.0625" y2="31.125" gradientUnits="userSpaceOnUse">
<stop stop-color="#06C7F4"/>
<stop offset="0.5" stop-color="#0B7BF3"/>
<stop offset="1" stop-color="#1029F5"/>
</linearGradient>
<linearGradient id="paint1_linear_2009_470" x1="0.9375" y1="31.125" x2="89.0625" y2="31.125" gradientUnits="userSpaceOnUse">
<stop stop-color="#06C7F4"/>
<stop offset="0.5" stop-color="#0B7BF3"/>
<stop offset="1" stop-color="#1029F5"/>
</linearGradient>
<linearGradient id="paint2_linear_2009_470" x1="0.9375" y1="31.125" x2="89.0625" y2="31.125" gradientUnits="userSpaceOnUse">
<stop stop-color="#06C7F4"/>
<stop offset="0.5" stop-color="#0B7BF3"/>
<stop offset="1" stop-color="#1029F5"/>
</linearGradient>
<linearGradient id="paint3_linear_2009_470" x1="0.9375" y1="31.125" x2="89.0625" y2="31.125" gradientUnits="userSpaceOnUse">
<stop stop-color="#06C7F4"/>
<stop offset="0.5" stop-color="#0B7BF3"/>
<stop offset="1" stop-color="#1029F5"/>
</linearGradient>
<linearGradient id="paint4_linear_2009_470" x1="0.9375" y1="31.125" x2="89.0625" y2="31.125" gradientUnits="userSpaceOnUse">
<stop stop-color="#06C7F4"/>
<stop offset="0.5" stop-color="#0B7BF3"/>
<stop offset="1" stop-color="#1029F5"/>
</linearGradient>
<linearGradient id="paint5_linear_2009_470" x1="0.9375" y1="31.125" x2="89.0625" y2="31.125" gradientUnits="userSpaceOnUse">
<stop stop-color="#06C7F4"/>
<stop offset="0.5" stop-color="#0B7BF3"/>
<stop offset="1" stop-color="#1029F5"/>
</linearGradient>
</defs>
</svg>
