<svg width="65" height="62" viewBox="0 0 65 62" fill="none" xmlns="http://www.w3.org/2000/svg">
<path d="M21.0433 16.1796L29.4078 2.58732C30.3973 0.979439 32.15 0 34.038 0C37.37 0 39.9181 2.97004 39.4114 6.26334L38.5 12.1875C37.5141 18.5958 42.4722 24.375 48.9559 24.375H51.5425C61.0562 24.375 67.244 34.387 62.9893 42.8964L58.6824 51.5102C55.5063 57.8624 49.0138 61.875 41.9119 61.875H31C25.9454 61.875 21.4748 59.3749 18.7572 55.5439C18.7938 55.1592 18.8125 54.7693 18.8125 54.375V24.375C18.8125 23.1337 18.6269 21.9358 18.282 20.8075C18.9466 19.5867 19.8315 18.1488 21.0433 16.1796Z" fill="url(#paint0_linear_2009_357)"/>
<path d="M13.1875 54.375C13.1875 57.9994 10.2494 60.9375 6.625 60.9375C3.00063 60.9375 0.0625 57.9994 0.0625 54.375V24.375C0.0625 20.7506 3.00063 17.8125 6.625 17.8125C10.2494 17.8125 13.1875 20.7506 13.1875 24.375V54.375Z" fill="url(#paint1_linear_2009_357)"/>
<defs>
<linearGradient id="paint0_linear_2009_357" x1="0.0625" y1="30.9375" x2="64.3569" y2="30.9375" gradientUnits="userSpaceOnUse">
<stop stop-color="#06C7F4"/>
<stop offset="0.5" stop-color="#0B7BF3"/>
<stop offset="1" stop-color="#1029F5"/>
</linearGradient>
<linearGradient id="paint1_linear_2009_357" x1="0.0625" y1="30.9375" x2="64.3569" y2="30.9375" gradientUnits="userSpaceOnUse">
<stop stop-color="#06C7F4"/>
<stop offset="0.5" stop-color="#0B7BF3"/>
<stop offset="1" stop-color="#1029F5"/>
</linearGradient>
</defs>
</svg>
