<svg width="76" height="76" viewBox="0 0 76 76" fill="none" xmlns="http://www.w3.org/2000/svg">
<path d="M49.8649 32.225C50.0701 34.2346 50.1875 36.1797 50.1875 38C50.1875 41.4076 49.7756 45.2553 49.1458 49.1458C45.2553 49.7756 41.4077 50.1875 38 50.1875C34.6078 50.1875 30.7612 49.7769 26.854 49.1445C26.2243 45.2545 25.8125 41.4073 25.8125 38C25.8125 36.1803 25.93 34.2352 26.1353 32.225C30.236 32.8815 34.3267 33.3125 38.0001 33.3125C41.6735 33.3125 45.7642 32.8815 49.8649 32.225Z" fill="url(#paint0_linear_2009_381)"/>
<path d="M55.4115 31.2122C55.6652 33.564 55.8125 35.8537 55.8125 38C55.8125 41.1319 55.4991 44.5676 54.9997 48.0546C62.0803 46.5772 68.6252 44.6895 72.131 43.6151C73.2641 43.2678 73.7091 43.1297 74.3065 42.8907C74.6049 42.7714 74.8787 42.6499 75.2352 42.4795C75.4101 41.0107 75.5 39.5159 75.5 38C75.5 33.9929 74.8715 30.1326 73.7077 26.5124L73.4045 26.6078C69.7387 27.723 62.8756 29.6946 55.4115 31.2122Z" fill="url(#paint1_linear_2009_381)"/>
<path d="M71.5774 21.2838C67.892 22.4008 61.4963 24.2157 54.6424 25.6287C53.0637 16.0331 50.2963 6.46252 48.965 2.1285C58.8652 5.15095 67.0261 12.1595 71.5774 21.2838Z" fill="url(#paint2_linear_2009_381)"/>
<path d="M49.1131 26.651C45.2333 27.2779 41.3977 27.6875 38.0001 27.6875C34.6026 27.6875 30.767 27.2779 26.8872 26.6511C28.374 17.5716 31.0279 8.29663 32.3849 3.86904C32.7322 2.73592 32.8703 2.29086 33.1093 1.69349C33.2286 1.39508 33.3501 1.12136 33.5205 0.764787C34.9893 0.589946 36.4841 0.5 38 0.5C39.5835 0.5 41.1441 0.598149 42.676 0.788694C42.7085 0.912993 42.7386 1.02424 42.7683 1.12949C42.856 1.44047 42.9935 1.87751 43.2242 2.61085L43.2484 2.68789C44.4053 6.3651 47.4709 16.6215 49.1131 26.651Z" fill="url(#paint3_linear_2009_381)"/>
<path d="M21.3573 25.6286C22.9289 16.0753 25.6781 6.55629 27.0068 2.22075L27.0351 2.12846C17.1349 5.1509 8.97394 12.1595 4.42267 21.2838C8.10779 22.4007 14.5034 24.2156 21.3573 25.6286Z" fill="url(#paint4_linear_2009_381)"/>
<path d="M2.29228 26.5123C1.12849 30.1326 0.5 33.9929 0.5 38C0.5 39.5676 0.596181 41.1126 0.782963 42.6297L1.37396 42.8267L1.37866 42.8283L1.38446 42.8302L1.38854 42.8315C1.57876 42.8945 7.15377 44.7357 14.4956 46.5624C16.5674 47.0778 18.761 47.5873 21.0002 48.0541C20.5009 44.5673 20.1875 41.1317 20.1875 38C20.1875 35.853 20.3348 33.5633 20.5883 31.2121C13.1224 29.6942 6.25779 27.7218 2.59274 26.6067L2.56725 26.599L2.29228 26.5123Z" fill="url(#paint5_linear_2009_381)"/>
<path d="M38 55.8125C41.1319 55.8125 44.5677 55.4991 48.0546 54.9997C46.5772 62.0802 44.6896 68.625 43.6151 72.1309C43.2678 73.264 43.1297 73.7091 42.8908 74.3065C42.7714 74.6049 42.6499 74.8786 42.4796 75.2352C41.0107 75.4101 39.5159 75.5 38 75.5C36.4841 75.5 34.9893 75.41 33.5205 75.2352C33.3501 74.8786 33.2286 74.6049 33.1093 74.3065C32.8703 73.7091 32.7322 73.2641 32.3849 72.131C31.3105 68.6254 29.4231 62.081 27.9456 55.0009C31.4212 55.4986 34.8574 55.8125 38 55.8125Z" fill="url(#paint6_linear_2009_381)"/>
<path d="M13.1375 52.0209C8.49475 50.8658 4.54054 49.7055 2.12845 48.9648C5.75921 60.8577 15.1422 70.2408 27.0351 73.8715L27.0069 73.7793C25.8466 69.9936 23.6034 62.256 22.0068 53.9942C18.9018 53.3938 15.8829 52.704 13.1375 52.0209Z" fill="url(#paint7_linear_2009_381)"/>
<path d="M73.7793 48.9932C69.9935 50.1534 62.2554 52.3967 53.9934 53.9934C52.3967 62.2553 50.1535 69.9933 48.9932 73.7792L48.9649 73.8715C60.8578 70.2407 70.2408 60.8578 73.8715 48.9649L73.7793 48.9932Z" fill="url(#paint8_linear_2009_381)"/>
<path d="M0.893941 42.7248C1.02375 42.7418 1.12955 42.7595 1.16467 42.7675C1.19543 42.7751 1.2436 42.7878 1.26108 42.7926L1.29968 42.8037L1.32046 42.8099L1.34232 42.8167L1.36064 42.8225C1.35035 42.8192 1.14199 42.767 0.893941 42.7248Z" fill="url(#paint9_linear_2009_381)"/>
<defs>
<linearGradient id="paint0_linear_2009_381" x1="0.5" y1="38" x2="75.5" y2="38" gradientUnits="userSpaceOnUse">
<stop stop-color="#06C7F4"/>
<stop offset="0.5" stop-color="#0B7BF3"/>
<stop offset="1" stop-color="#1029F5"/>
</linearGradient>
<linearGradient id="paint1_linear_2009_381" x1="0.5" y1="38" x2="75.5" y2="38" gradientUnits="userSpaceOnUse">
<stop stop-color="#06C7F4"/>
<stop offset="0.5" stop-color="#0B7BF3"/>
<stop offset="1" stop-color="#1029F5"/>
</linearGradient>
<linearGradient id="paint2_linear_2009_381" x1="0.5" y1="38" x2="75.5" y2="38" gradientUnits="userSpaceOnUse">
<stop stop-color="#06C7F4"/>
<stop offset="0.5" stop-color="#0B7BF3"/>
<stop offset="1" stop-color="#1029F5"/>
</linearGradient>
<linearGradient id="paint3_linear_2009_381" x1="0.5" y1="38" x2="75.5" y2="38" gradientUnits="userSpaceOnUse">
<stop stop-color="#06C7F4"/>
<stop offset="0.5" stop-color="#0B7BF3"/>
<stop offset="1" stop-color="#1029F5"/>
</linearGradient>
<linearGradient id="paint4_linear_2009_381" x1="0.5" y1="38" x2="75.5" y2="38" gradientUnits="userSpaceOnUse">
<stop stop-color="#06C7F4"/>
<stop offset="0.5" stop-color="#0B7BF3"/>
<stop offset="1" stop-color="#1029F5"/>
</linearGradient>
<linearGradient id="paint5_linear_2009_381" x1="0.5" y1="38" x2="75.5" y2="38" gradientUnits="userSpaceOnUse">
<stop stop-color="#06C7F4"/>
<stop offset="0.5" stop-color="#0B7BF3"/>
<stop offset="1" stop-color="#1029F5"/>
</linearGradient>
<linearGradient id="paint6_linear_2009_381" x1="0.5" y1="38" x2="75.5" y2="38" gradientUnits="userSpaceOnUse">
<stop stop-color="#06C7F4"/>
<stop offset="0.5" stop-color="#0B7BF3"/>
<stop offset="1" stop-color="#1029F5"/>
</linearGradient>
<linearGradient id="paint7_linear_2009_381" x1="0.5" y1="38" x2="75.5" y2="38" gradientUnits="userSpaceOnUse">
<stop stop-color="#06C7F4"/>
<stop offset="0.5" stop-color="#0B7BF3"/>
<stop offset="1" stop-color="#1029F5"/>
</linearGradient>
<linearGradient id="paint8_linear_2009_381" x1="0.5" y1="38" x2="75.5" y2="38" gradientUnits="userSpaceOnUse">
<stop stop-color="#06C7F4"/>
<stop offset="0.5" stop-color="#0B7BF3"/>
<stop offset="1" stop-color="#1029F5"/>
</linearGradient>
<linearGradient id="paint9_linear_2009_381" x1="0.5" y1="38" x2="75.5" y2="38" gradientUnits="userSpaceOnUse">
<stop stop-color="#06C7F4"/>
<stop offset="0.5" stop-color="#0B7BF3"/>
<stop offset="1" stop-color="#1029F5"/>
</linearGradient>
</defs>
</svg>
