<svg width="246" height="173" viewBox="0 0 246 173" fill="none" xmlns="http://www.w3.org/2000/svg">
<path d="M66.5551 41.5016C70.3806 23.2936 58.8753 5.46446 40.8575 1.67894C22.8397 -2.10657 5.13229 9.58502 1.30681 27.793C-2.51859 46.0007 8.98661 63.8298 27.0044 67.6153C45.0222 71.4008 62.7297 59.7093 66.5551 41.5016Z" fill="#CFF5FD"/>
<path d="M117.153 124.941C120.978 106.733 109.473 88.9037 91.4556 85.1182C73.4374 81.3326 55.7303 93.0243 51.9049 111.232C48.0794 129.44 59.5843 147.269 77.6024 151.055C95.6202 154.84 113.327 143.148 117.153 124.941Z" fill="#CFF5FD"/>
<path d="M195.54 66.5762C199.365 48.3682 187.86 30.5391 169.842 26.7535C151.824 22.968 134.117 34.6597 130.292 52.8677C126.466 71.0753 137.971 88.9044 155.989 92.6899C174.007 96.4755 191.714 84.7838 195.54 66.5762Z" fill="#CFF5FD"/>
<path d="M245.016 145.818C248.841 127.61 237.336 109.781 219.318 105.995C201.3 102.21 183.593 113.901 179.768 132.109C175.942 150.317 187.447 168.146 205.465 171.932C223.483 175.717 241.19 164.026 245.016 145.818Z" fill="#CFF5FD"/>
<path d="M90.7408 78.9818C68.4795 74.3047 66.1387 48.2519 67.1485 38.6773L25.3724 66.2604C34.4443 69.1788 57.1089 82.6478 52.4982 108.408C105.138 121.087 117.93 122.83 117.746 122.116C121.915 94.6434 150.652 92.2439 161.663 93.8824L130.478 51.9826C126.909 61.0197 113.002 83.6588 90.7408 78.9818Z" fill="#CFF5FD"/>
</svg>
