<svg width="296" height="156" viewBox="0 0 296 156" fill="none" xmlns="http://www.w3.org/2000/svg">
<path d="M75.1046 116.426C75.1046 137.068 58.2918 153.802 37.5522 153.802C16.8127 153.802 0 137.068 0 116.426C0 95.7849 16.8127 79.0515 37.5522 79.0515C58.2918 79.0515 75.1046 95.7849 75.1046 116.426Z" fill="#F0F0F0"/>
<path d="M150.209 37.375C150.209 58.0167 133.396 74.75 112.657 74.75C91.917 74.75 75.1046 58.0167 75.1046 37.375C75.1046 16.7333 91.917 0 112.657 0C133.396 0 150.209 16.7333 150.209 37.375Z" fill="#F0F0F0"/>
<path d="M223.104 118.625C223.104 139.267 206.292 156 185.552 156C164.812 156 148 139.267 148 118.625C148 97.9833 164.812 81.25 185.552 81.25C206.292 81.25 223.104 97.9833 223.104 118.625Z" fill="#F0F0F0"/>
<path d="M296 43.8752C296 64.5167 279.187 81.25 258.448 81.25C237.708 81.25 220.895 64.5167 220.895 43.8752C220.895 23.2333 237.708 6.5 258.448 6.5C279.187 6.5 296 23.2333 296 43.8752Z" fill="#F0F0F0"/>
<path d="M110.448 81.2496C84.8237 81.2496 76.209 109.002 75.1046 119.628L35.4393 80.1503C46.1161 79.0511 74.2211 69.5973 75.1046 40.5768C136.072 38.818 150.577 39.844 150.209 40.5768C148.442 71.3564 179.566 80.5169 192.083 81.2496L148 119.628C146.159 109.002 136.072 81.2496 110.448 81.2496Z" fill="#F0F0F0"/>
</svg>
