<svg width="25" height="24" viewBox="0 0 25 24" fill="none" xmlns="http://www.w3.org/2000/svg">
<path d="M17.25 2C17.25 1.58579 16.9142 1.25 16.5 1.25C16.0858 1.25 15.75 1.58579 15.75 2V3.28791C14.8413 3.25 13.7786 3.25 12.5313 3.25L12.4547 3.25C10.6182 3.24999 9.17861 3.24999 8.03648 3.37373C6.87094 3.50001 5.92656 3.76232 5.12024 4.34815C4.63209 4.70281 4.20281 5.13209 3.84815 5.62023C3.31167 6.35864 3.04592 7.21396 2.90814 8.25H22.0919C21.9541 7.21396 21.6883 6.35864 21.1518 5.62023C20.7972 5.13209 20.3679 4.70281 19.8798 4.34815C19.1414 3.81167 18.286 3.54592 17.25 3.40814V2Z" fill="url(#paint0_linear_656_9502)"/>
<path d="M9 13.75C8.0335 13.75 7.25 14.5335 7.25 15.5C7.25 16.4665 8.0335 17.25 9 17.25C9.9665 17.25 10.75 16.4665 10.75 15.5C10.75 14.5335 9.9665 13.75 9 13.75Z" fill="url(#paint1_linear_656_9502)"/>
<path fill-rule="evenodd" clip-rule="evenodd" d="M22.2121 9.75H2.78791C2.75 10.6587 2.75 11.7214 2.75 12.9687V13.0452C2.74999 14.8818 2.74999 16.3214 2.87373 17.4635C3.00001 18.6291 3.26232 19.5734 3.84815 20.3798C4.20281 20.8679 4.63209 21.2972 5.12024 21.6518C5.92656 22.2377 6.87094 22.5 8.03648 22.6263C9.17859 22.75 10.6182 22.75 12.4547 22.75H12.5453C14.3818 22.75 15.8214 22.75 16.9635 22.6263C18.1291 22.5 19.0734 22.2377 19.8798 21.6518C20.3679 21.2972 20.7972 20.8679 21.1518 20.3798C21.7377 19.5734 22 18.6291 22.1263 17.4635C22.25 16.3214 22.25 14.8818 22.25 13.0453V12.9687C22.25 11.7214 22.25 10.6587 22.2121 9.75ZM5.75 15.5C5.75 13.7051 7.20507 12.25 9 12.25C10.7949 12.25 12.25 13.7051 12.25 15.5C12.25 17.2949 10.7949 18.75 9 18.75C7.20507 18.75 5.75 17.2949 5.75 15.5ZM13.75 14C13.75 13.5858 14.0858 13.25 14.5 13.25H18.5C18.9142 13.25 19.25 13.5858 19.25 14C19.25 14.4142 18.9142 14.75 18.5 14.75H14.5C14.0858 14.75 13.75 14.4142 13.75 14ZM13.75 17C13.75 16.5858 14.0858 16.25 14.5 16.25H18.5C18.9142 16.25 19.25 16.5858 19.25 17C19.25 17.4142 18.9142 17.75 18.5 17.75H14.5C14.0858 17.75 13.75 17.4142 13.75 17Z" fill="url(#paint2_linear_656_9502)"/>
<defs>
<linearGradient id="paint0_linear_656_9502" x1="2.75" y1="22.75" x2="24.5116" y2="3.85466" gradientUnits="userSpaceOnUse">
<stop stop-color="#207894"/>
<stop offset="1" stop-color="#2ECDFF"/>
</linearGradient>
<linearGradient id="paint1_linear_656_9502" x1="2.75" y1="22.75" x2="24.5116" y2="3.85466" gradientUnits="userSpaceOnUse">
<stop stop-color="#207894"/>
<stop offset="1" stop-color="#2ECDFF"/>
</linearGradient>
<linearGradient id="paint2_linear_656_9502" x1="2.75" y1="22.75" x2="24.5116" y2="3.85466" gradientUnits="userSpaceOnUse">
<stop stop-color="#207894"/>
<stop offset="1" stop-color="#2ECDFF"/>
</linearGradient>
</defs>
</svg>
