<svg width="15" height="18" viewBox="0 0 15 18" fill="none" xmlns="http://www.w3.org/2000/svg">
<path d="M11.2043 1.5755L11.2944 1.6275C12.0725 2.07671 12.7214 2.4513 13.1965 2.81795C13.698 3.20494 14.096 3.64914 14.2627 4.27132C14.4294 4.8935 14.3068 5.4772 14.066 6.06309C13.8989 6.46975 13.6531 6.92674 13.357 7.44801L12.7216 7.0704L12.7134 7.0656L5.78815 3.06728L5.14051 2.68557C5.4406 2.17448 5.71098 1.73795 5.97717 1.393C6.36417 0.891518 6.80836 0.49349 7.43055 0.326777C8.05273 0.160063 8.63643 0.282668 9.22232 0.523468C9.77739 0.751603 10.4262 1.12624 11.2043 1.5755Z" fill="url(#paint0_linear_2071_503)"/>
<path d="M4.38908 3.98384L0.911111 10.0077C0.613324 10.5225 0.377865 10.9296 0.290629 11.3926C0.203394 11.8556 0.274581 12.3204 0.364611 12.9083L0.388867 13.0672C0.555053 14.1586 0.692034 15.0581 0.898634 15.7403C1.11471 16.4537 1.44686 17.0712 2.10013 17.4484C2.7534 17.8256 3.45427 17.8045 4.18015 17.6349C4.87422 17.4727 5.72175 17.1416 6.74998 16.7398L6.89973 16.6814C7.45386 16.4654 7.89201 16.2946 8.24936 15.9876C8.60672 15.6805 8.84151 15.2731 9.13845 14.7578L12.6082 8.74792L11.9593 8.36226L5.02942 4.36127L4.38908 3.98384Z" fill="url(#paint1_linear_2071_503)"/>
<defs>
<linearGradient id="paint0_linear_2071_503" x1="0.250977" y1="17.7515" x2="17.5519" y2="4.4185" gradientUnits="userSpaceOnUse">
<stop stop-color="#207894"/>
<stop offset="1" stop-color="#2ECDFF"/>
</linearGradient>
<linearGradient id="paint1_linear_2071_503" x1="0.250977" y1="17.7515" x2="17.5519" y2="4.4185" gradientUnits="userSpaceOnUse">
<stop stop-color="#207894"/>
<stop offset="1" stop-color="#2ECDFF"/>
</linearGradient>
</defs>
</svg>
