<svg width="13" height="13" viewBox="0 0 13 13" fill="none" xmlns="http://www.w3.org/2000/svg">
<path d="M0.212439 6.14355L2.98378 7.4091L4.05646 11.6299C4.1251 11.9002 4.39527 12.0002 4.5746 11.8208L6.1194 10.2799C6.28132 10.1185 6.51197 10.1105 6.68119 10.2608L9.46745 12.7358C9.65929 12.9064 9.93107 12.7778 9.97918 12.4942L12.0203 0.481668C12.0728 0.171853 11.824 -0.0866039 11.5829 0.0274921L0.209191 5.39584C-0.0714872 5.52828 -0.0690417 6.01449 0.212439 6.14355ZM3.88359 6.73541L9.29983 2.65391C9.39717 2.58077 9.49732 2.74181 9.41373 2.83668L4.94376 7.92047C4.78664 8.09941 4.68529 8.33889 4.65659 8.59882L4.50432 9.97945C4.48416 10.1638 4.27251 10.1821 4.23094 10.0037L3.64533 7.48606C3.57826 7.19891 3.676 6.89218 3.88359 6.73541Z" fill="white"/>
</svg>
