<svg width="15" height="16" viewBox="0 0 15 16" fill="none" xmlns="http://www.w3.org/2000/svg">
<path d="M14.9989 13.7058C15.0216 14.122 14.6887 14.4771 14.2554 14.4989C13.8221 14.5208 13.4524 14.201 13.4297 13.7848L12.9782 5.51089C12.9555 5.09469 13.2884 4.7396 13.7217 4.71779C14.155 4.69598 14.5247 5.01569 14.5474 5.4319L14.9989 13.7058Z" fill="white"/>
<path d="M14.4352 12.6244C14.7504 12.9109 14.7641 13.3885 14.4658 13.6912C14.1675 13.9939 13.6702 14.007 13.3551 13.7205L0.245597 1.80271C-0.0695477 1.51621 -0.0832135 1.03858 0.215073 0.735891C0.51336 0.433201 1.01065 0.420075 1.32579 0.706573L14.4352 12.6244Z" fill="white"/>
<path d="M6.03122 15.2609C5.59732 15.2569 5.249 14.9157 5.25323 14.499C5.25746 14.0822 5.61264 13.7477 6.04654 13.7517L14.1768 12.9898C14.6107 12.9938 14.959 13.335 14.9548 13.7517C14.9506 14.1685 14.5954 14.503 14.1615 14.499L6.03122 15.2609Z" fill="white"/>
</svg>
