<svg width="21" height="20" viewBox="0 0 21 20" fill="none" xmlns="http://www.w3.org/2000/svg">
<path d="M13.664 8.46001C13.7187 8.9959 13.75 9.5146 13.75 10C13.75 10.9087 13.6402 11.9348 13.4722 12.9722C12.4348 13.1402 11.4087 13.25 10.5 13.25C9.59541 13.25 8.56965 13.1405 7.52773 12.9719C7.35982 11.9345 7.25 10.9086 7.25 10C7.25 9.51475 7.28132 8.99605 7.33609 8.46001C8.4296 8.63506 9.52047 8.75 10.5 8.75C11.4796 8.75 12.5705 8.63506 13.664 8.46001Z" fill="url(#paint0_linear_2071_494)"/>
<path d="M15.1431 8.18992C15.2107 8.81706 15.25 9.42766 15.25 10C15.25 10.8352 15.1664 11.7514 15.0333 12.6812C16.9214 12.2872 18.6667 11.7839 19.6016 11.4974C19.9038 11.4047 20.0224 11.3679 20.1817 11.3042C20.2613 11.2724 20.3343 11.24 20.4294 11.1945C20.476 10.8029 20.5 10.4042 20.5 10C20.5 8.93145 20.3324 7.90204 20.0221 6.93663L19.9412 6.96207C18.9637 7.25947 17.1335 7.78524 15.1431 8.18992Z" fill="url(#paint1_linear_2071_494)"/>
<path d="M19.454 5.54236C18.4712 5.8402 16.7657 6.32419 14.938 6.70098C14.517 4.14215 13.779 1.59001 13.424 0.434266C16.064 1.24025 18.2403 3.10921 19.454 5.54236Z" fill="url(#paint2_linear_2071_494)"/>
<path d="M13.4635 6.97361C12.4289 7.14077 11.406 7.25 10.5 7.25C9.59403 7.25 8.57121 7.14078 7.5366 6.97362C7.93306 4.55243 8.64078 2.0791 9.00265 0.89841C9.09525 0.596246 9.13208 0.477564 9.1958 0.318264C9.22763 0.238688 9.26003 0.165696 9.30546 0.0706097C9.69714 0.0239856 10.0958 0 10.5 0C10.9223 0 11.3384 0.0261729 11.7469 0.0769851C11.7556 0.110132 11.7636 0.139798 11.7715 0.167863C11.7949 0.250792 11.8316 0.367336 11.8931 0.562894L11.8996 0.583438C12.2081 1.56403 13.0256 4.29906 13.4635 6.97361Z" fill="url(#paint3_linear_2071_494)"/>
<path d="M6.06194 6.70095C6.48105 4.1534 7.21415 1.61501 7.56849 0.458866L7.57603 0.434256C4.93597 1.24024 2.75972 3.10919 1.54604 5.54234C2.52874 5.84018 4.23424 6.32415 6.06194 6.70095Z" fill="url(#paint4_linear_2071_494)"/>
<path d="M0.977942 6.93662C0.667598 7.90204 0.5 8.93145 0.5 10C0.5 10.418 0.525648 10.83 0.575457 11.2346L0.733055 11.2871L0.73431 11.2875L0.735855 11.288L0.736944 11.2884C0.787668 11.3052 2.27434 11.7962 4.23217 12.2833C4.78463 12.4207 5.36959 12.5566 5.96672 12.6811C5.83357 11.7513 5.75 10.8351 5.75 10C5.75 9.42747 5.78928 8.81687 5.85688 8.1899C3.86598 7.78511 2.03541 7.25916 1.05806 6.9618L1.05127 6.95973L0.977942 6.93662Z" fill="url(#paint5_linear_2071_494)"/>
<path d="M10.5 14.75C11.3352 14.75 12.2514 14.6664 13.1812 14.5333C12.7872 16.4214 12.2839 18.1667 11.9974 19.1016C11.9048 19.4037 11.8679 19.5224 11.8042 19.6817C11.7724 19.7613 11.74 19.8343 11.6945 19.9294C11.3029 19.976 10.9042 20 10.5 20C10.0958 20 9.69714 19.976 9.30546 19.9294C9.26003 19.8343 9.22763 19.7613 9.1958 19.6817C9.13208 19.5224 9.09526 19.4038 9.00265 19.1016C8.71614 18.1668 8.21282 16.4216 7.81884 14.5336C8.74565 14.6663 9.66196 14.75 10.5 14.75Z" fill="url(#paint6_linear_2071_494)"/>
<path d="M3.87 13.7389C2.63193 13.4309 1.57748 13.1215 0.934253 12.924C1.90246 16.0954 4.40459 18.5975 7.57603 19.5657L7.56849 19.5411C7.2591 18.5316 6.66092 16.4683 6.23515 14.2651C5.40715 14.105 4.60212 13.9211 3.87 13.7389Z" fill="url(#paint7_linear_2071_494)"/>
<path d="M20.0411 12.9315C19.0316 13.2409 16.9681 13.8391 14.7649 14.2649C14.3391 16.4681 13.7409 18.5316 13.4315 19.5411L13.424 19.5657C16.5954 18.5975 19.0975 16.0954 20.0657 12.924L20.0411 12.9315Z" fill="url(#paint8_linear_2071_494)"/>
<path d="M0.605051 11.26C0.639668 11.2645 0.667881 11.2692 0.677244 11.2713C0.685448 11.2734 0.698294 11.2767 0.702955 11.278L0.713247 11.281L0.718788 11.2826L0.724619 11.2844L0.729504 11.286C0.72676 11.2851 0.671198 11.2712 0.605051 11.26Z" fill="url(#paint9_linear_2071_494)"/>
<defs>
<linearGradient id="paint0_linear_2071_494" x1="0.5" y1="20" x2="20.9262" y2="0.44515" gradientUnits="userSpaceOnUse">
<stop stop-color="#207894"/>
<stop offset="1" stop-color="#2ECDFF"/>
</linearGradient>
<linearGradient id="paint1_linear_2071_494" x1="0.5" y1="20" x2="20.9262" y2="0.44515" gradientUnits="userSpaceOnUse">
<stop stop-color="#207894"/>
<stop offset="1" stop-color="#2ECDFF"/>
</linearGradient>
<linearGradient id="paint2_linear_2071_494" x1="0.5" y1="20" x2="20.9262" y2="0.44515" gradientUnits="userSpaceOnUse">
<stop stop-color="#207894"/>
<stop offset="1" stop-color="#2ECDFF"/>
</linearGradient>
<linearGradient id="paint3_linear_2071_494" x1="0.5" y1="20" x2="20.9262" y2="0.44515" gradientUnits="userSpaceOnUse">
<stop stop-color="#207894"/>
<stop offset="1" stop-color="#2ECDFF"/>
</linearGradient>
<linearGradient id="paint4_linear_2071_494" x1="0.5" y1="20" x2="20.9262" y2="0.44515" gradientUnits="userSpaceOnUse">
<stop stop-color="#207894"/>
<stop offset="1" stop-color="#2ECDFF"/>
</linearGradient>
<linearGradient id="paint5_linear_2071_494" x1="0.5" y1="20" x2="20.9262" y2="0.44515" gradientUnits="userSpaceOnUse">
<stop stop-color="#207894"/>
<stop offset="1" stop-color="#2ECDFF"/>
</linearGradient>
<linearGradient id="paint6_linear_2071_494" x1="0.5" y1="20" x2="20.9262" y2="0.44515" gradientUnits="userSpaceOnUse">
<stop stop-color="#207894"/>
<stop offset="1" stop-color="#2ECDFF"/>
</linearGradient>
<linearGradient id="paint7_linear_2071_494" x1="0.5" y1="20" x2="20.9262" y2="0.44515" gradientUnits="userSpaceOnUse">
<stop stop-color="#207894"/>
<stop offset="1" stop-color="#2ECDFF"/>
</linearGradient>
<linearGradient id="paint8_linear_2071_494" x1="0.5" y1="20" x2="20.9262" y2="0.44515" gradientUnits="userSpaceOnUse">
<stop stop-color="#207894"/>
<stop offset="1" stop-color="#2ECDFF"/>
</linearGradient>
<linearGradient id="paint9_linear_2071_494" x1="0.5" y1="20" x2="20.9262" y2="0.44515" gradientUnits="userSpaceOnUse">
<stop stop-color="#207894"/>
<stop offset="1" stop-color="#2ECDFF"/>
</linearGradient>
</defs>
</svg>
