<svg width="60" height="60" viewBox="0 0 60 60" fill="none" xmlns="http://www.w3.org/2000/svg">
<path fill-rule="evenodd" clip-rule="evenodd" d="M3.18305 6.87025C0 11.2513 0 17.5009 0 30C0 42.4991 0 48.7487 3.18305 53.1298C4.21104 54.5447 5.45533 55.789 6.87025 56.817C11.2513 60 17.5009 60 30 60C42.4991 60 48.7487 60 53.1298 56.817C54.5447 55.789 55.789 54.5447 56.817 53.1298C60 48.7487 60 42.4991 60 30C60 17.5009 60 11.2513 56.817 6.87025C55.789 5.45533 54.5447 4.21104 53.1298 3.18305C48.7487 0 42.4991 0 30 0C17.5009 0 11.2513 0 6.87025 3.18305C5.45533 4.21104 4.21104 5.45533 3.18305 6.87025ZM32.5 16.6667C32.5 15.286 31.3807 14.1667 30 14.1667C28.6193 14.1667 27.5 15.286 27.5 16.6667V39.7874C27.4526 39.7504 27.4043 39.7122 27.355 39.6726C26.2795 38.8089 25.0011 37.5244 23.1018 35.6081L18.4423 30.9068C17.4704 29.9261 15.8875 29.9191 14.9068 30.891C13.9261 31.863 13.9191 33.4459 14.891 34.4265L19.6522 39.2303C21.4234 41.0176 22.9007 42.5082 24.2241 43.571C25.6122 44.6858 27.071 45.5337 28.8483 45.7602C29.2307 45.809 29.6153 45.8333 30 45.8333C30.3847 45.8333 30.7693 45.809 31.1516 45.7602C32.929 45.5337 34.3878 44.6858 35.7759 43.571C37.0993 42.5082 38.5765 41.0176 40.3478 39.2304L45.109 34.4265C46.0809 33.4459 46.0739 31.863 45.0932 30.891C44.1125 29.9191 42.5296 29.9261 41.5577 30.9068L36.8982 35.6081C34.9989 37.5244 33.7205 38.8089 32.645 39.6726C32.5957 39.7122 32.5474 39.7504 32.5 39.7874V16.6667Z" fill="url(#paint0_linear_2027_282)"/>
<defs>
<linearGradient id="paint0_linear_2027_282" x1="0" y1="30" x2="60" y2="30" gradientUnits="userSpaceOnUse">
<stop stop-color="#06C7F4"/>
<stop offset="0.5" stop-color="#0B7BF3"/>
<stop offset="1" stop-color="#1029F5"/>
</linearGradient>
</defs>
</svg>
