<svg width="182" height="23" viewBox="0 0 182 23" fill="none" xmlns="http://www.w3.org/2000/svg">
<path d="M0.809659 22V19.3352L7.87926 12.4048C8.5554 11.7221 9.11885 11.1155 9.5696 10.5852C10.0204 10.0549 10.3584 9.54119 10.5838 9.04403C10.8092 8.54687 10.9219 8.01657 10.9219 7.45312C10.9219 6.81013 10.776 6.25994 10.4844 5.80256C10.1927 5.33854 9.79167 4.98059 9.28125 4.72869C8.77083 4.4768 8.19081 4.35085 7.54119 4.35085C6.87169 4.35085 6.28504 4.49006 5.78125 4.76847C5.27746 5.04025 4.88636 5.42803 4.60795 5.93182C4.33617 6.43561 4.20028 7.03551 4.20028 7.73153H0.690341C0.690341 6.43892 0.985322 5.31534 1.57528 4.36079C2.16525 3.40625 2.97727 2.66714 4.01136 2.14347C5.05208 1.61979 6.24527 1.35795 7.59091 1.35795C8.95644 1.35795 10.1563 1.61316 11.1903 2.12358C12.2244 2.634 13.0265 3.33333 13.5966 4.22159C14.1733 5.10985 14.4616 6.12405 14.4616 7.2642C14.4616 8.02651 14.3158 8.77557 14.0241 9.51136C13.7325 10.2472 13.2188 11.0625 12.483 11.9574C11.7538 12.8523 10.7296 13.9361 9.41051 15.2088L5.90057 18.7784V18.9176H14.7699V22H0.809659ZM31.4972 10.3366V13.2997H22.3295V10.3366H31.4972ZM42.0572 22H38.1197L45.2887 1.63636H49.8427L57.0217 22H53.0842L47.6452 5.8125H47.4862L42.0572 22ZM42.1864 14.0156H52.9251V16.9787H42.1864V14.0156ZM65.7621 22.2188C65.1589 22.2188 64.6418 22.0066 64.2109 21.5824C63.7801 21.1581 63.5679 20.6411 63.5746 20.0312C63.5679 19.4347 63.7801 18.9242 64.2109 18.5C64.6418 18.0758 65.1589 17.8636 65.7621 17.8636C66.3454 17.8636 66.8525 18.0758 67.2834 18.5C67.7209 18.9242 67.9429 19.4347 67.9496 20.0312C67.9429 20.4356 67.8369 20.8035 67.6314 21.1349C67.4325 21.4664 67.1674 21.7315 66.8359 21.9304C66.5111 22.1226 66.1532 22.2188 65.7621 22.2188Z" fill="#2F3334"/>
<path d="M94.2994 11.8182C94.2994 14.0388 93.8784 15.928 93.0366 17.4858C92.2014 19.0436 91.0612 20.2334 89.6161 21.0554C88.1777 21.8707 86.5603 22.2784 84.7638 22.2784C82.9542 22.2784 81.3301 21.8674 79.8917 21.0455C78.4532 20.2235 77.3164 19.0336 76.4812 17.4759C75.646 15.9181 75.2283 14.0322 75.2283 11.8182C75.2283 9.59754 75.646 7.70833 76.4812 6.15057C77.3164 4.5928 78.4532 3.40625 79.8917 2.59091C81.3301 1.76894 82.9542 1.35795 84.7638 1.35795C86.5603 1.35795 88.1777 1.76894 89.6161 2.59091C91.0612 3.40625 92.2014 4.5928 93.0366 6.15057C93.8784 7.70833 94.2994 9.59754 94.2994 11.8182ZM89.9343 11.8182C89.9343 10.3797 89.7189 9.16667 89.288 8.17898C88.8638 7.19129 88.2638 6.44224 87.4883 5.93182C86.7127 5.4214 85.8046 5.16619 84.7638 5.16619C83.7231 5.16619 82.815 5.4214 82.0394 5.93182C81.2638 6.44224 80.6606 7.19129 80.2298 8.17898C79.8055 9.16667 79.5934 10.3797 79.5934 11.8182C79.5934 13.2566 79.8055 14.4697 80.2298 15.4574C80.6606 16.4451 81.2638 17.1941 82.0394 17.7045C82.815 18.215 83.7231 18.4702 84.7638 18.4702C85.8046 18.4702 86.7127 18.215 87.4883 17.7045C88.2638 17.1941 88.8638 16.4451 89.288 15.4574C89.7189 14.4697 89.9343 13.2566 89.9343 11.8182ZM105.645 13.1705V22H101.409V6.72727H105.446V9.42188H105.625C105.963 8.53362 106.53 7.83097 107.325 7.31392C108.121 6.79025 109.085 6.52841 110.219 6.52841C111.279 6.52841 112.204 6.76042 112.993 7.22443C113.782 7.68845 114.395 8.35133 114.832 9.21307C115.27 10.0682 115.489 11.089 115.489 12.2756V22H111.253V13.0312C111.259 12.0966 111.021 11.3674 110.537 10.8438C110.053 10.3134 109.387 10.0483 108.538 10.0483C107.968 10.0483 107.464 10.1709 107.027 10.4162C106.596 10.6615 106.258 11.0194 106.013 11.4901C105.774 11.9541 105.652 12.5142 105.645 13.1705ZM127.063 1.63636V22H122.827V1.63636H127.063ZM134.456 22V6.72727H138.692V22H134.456ZM136.584 4.75852C135.954 4.75852 135.414 4.54972 134.963 4.1321C134.519 3.70786 134.297 3.20076 134.297 2.61079C134.297 2.02746 134.519 1.52699 134.963 1.10938C135.414 0.685132 135.954 0.47301 136.584 0.47301C137.214 0.47301 137.75 0.685132 138.195 1.10938C138.645 1.52699 138.871 2.02746 138.871 2.61079C138.871 3.20076 138.645 3.70786 138.195 4.1321C137.75 4.54972 137.214 4.75852 136.584 4.75852ZM150.321 13.1705V22H146.085V6.72727H150.122V9.42188H150.301C150.639 8.53362 151.206 7.83097 152.001 7.31392C152.797 6.79025 153.761 6.52841 154.895 6.52841C155.955 6.52841 156.88 6.76042 157.669 7.22443C158.458 7.68845 159.071 8.35133 159.508 9.21307C159.946 10.0682 160.164 11.089 160.164 12.2756V22H155.929V13.0312C155.935 12.0966 155.697 11.3674 155.213 10.8438C154.729 10.3134 154.063 10.0483 153.214 10.0483C152.644 10.0483 152.14 10.1709 151.703 10.4162C151.272 10.6615 150.934 11.0194 150.689 11.4901C150.45 11.9541 150.327 12.5142 150.321 13.1705ZM174.463 22.2983C172.892 22.2983 171.54 21.9801 170.406 21.3438C169.279 20.7008 168.411 19.7926 167.801 18.6193C167.191 17.4394 166.886 16.044 166.886 14.4332C166.886 12.8622 167.191 11.4834 167.801 10.2969C168.411 9.11032 169.269 8.18561 170.376 7.52273C171.49 6.85985 172.796 6.52841 174.294 6.52841C175.302 6.52841 176.24 6.69081 177.108 7.01562C177.983 7.33381 178.745 7.81439 179.395 8.45739C180.051 9.10038 180.562 9.90909 180.926 10.8835C181.291 11.8513 181.473 12.9848 181.473 14.2841V15.4474H168.577V12.8224H177.486C177.486 12.2126 177.353 11.6723 177.088 11.2017C176.823 10.7311 176.455 10.3632 175.984 10.098C175.52 9.82623 174.98 9.69034 174.364 9.69034C173.721 9.69034 173.151 9.83949 172.653 10.1378C172.163 10.4295 171.778 10.8239 171.5 11.321C171.222 11.8116 171.079 12.3584 171.072 12.9616V15.4574C171.072 16.2131 171.212 16.866 171.49 17.4162C171.775 17.9664 172.176 18.3906 172.693 18.6889C173.21 18.9872 173.823 19.1364 174.533 19.1364C175.003 19.1364 175.434 19.0701 175.825 18.9375C176.216 18.8049 176.551 18.6061 176.83 18.3409C177.108 18.0758 177.32 17.7509 177.466 17.3665L181.384 17.625C181.185 18.5663 180.777 19.3883 180.161 20.0909C179.551 20.7869 178.762 21.3305 177.794 21.7216C176.833 22.1061 175.723 22.2983 174.463 22.2983Z" fill="url(#paint0_linear_656_9179)"/>
<defs>
<linearGradient id="paint0_linear_656_9179" x1="-1" y1="12" x2="183" y2="12" gradientUnits="userSpaceOnUse">
<stop stop-color="#06C7F4"/>
<stop offset="0.5" stop-color="#0B7BF3"/>
<stop offset="1" stop-color="#1029F5"/>
</linearGradient>
</defs>
</svg>
