<svg width="18" height="20" viewBox="0 0 18 20" fill="none" xmlns="http://www.w3.org/2000/svg">
<path fill-rule="evenodd" clip-rule="evenodd" d="M17.455 2.73005C18 3.79961 18 5.19974 18 8V10.6988C18 10.9785 18 11.1183 17.9944 11.2364C17.8725 13.812 15.812 15.8725 13.2364 15.9944C13.1183 16 12.9623 16 12.6504 16L12.5703 16.0001C11.5501 16.0066 10.5562 16.3251 9.72224 16.9128L9.66922 16.9506L7.05848 18.8154C6.1635 19.4546 4.98743 18.5314 5.3959 17.5103C5.68525 16.7869 5.15251 16 4.37341 16H3.77166C1.68863 16 0 14.3114 0 12.2283V8C0 5.19974 0 3.79961 0.544967 2.73005C1.02433 1.78924 1.78924 1.02433 2.73005 0.544967C3.79961 0 5.19974 0 8 0H10C12.8003 0 14.2004 0 15.27 0.544967C16.2108 1.02433 16.9757 1.78924 17.455 2.73005ZM5 5.25C4.58579 5.25 4.25 5.58579 4.25 6C4.25 6.41421 4.58579 6.75 5 6.75H13C13.4142 6.75 13.75 6.41421 13.75 6C13.75 5.58579 13.4142 5.25 13 5.25H5ZM7 9.25C6.58579 9.25 6.25 9.58579 6.25 10C6.25 10.4142 6.58579 10.75 7 10.75H11C11.4142 10.75 11.75 10.4142 11.75 10C11.75 9.58579 11.4142 9.25 11 9.25H7Z" fill="url(#paint0_linear_2071_501)"/>
<defs>
<linearGradient id="paint0_linear_2071_501" x1="7.23327e-08" y1="19.0263" x2="19.3552" y2="1.49629" gradientUnits="userSpaceOnUse">
<stop stop-color="#207894"/>
<stop offset="1" stop-color="#2ECDFF"/>
</linearGradient>
</defs>
</svg>
