<?xml version="1.0" encoding="utf-8"?><svg viewBox="0 0 502.66 502.66" xmlns="http://www.w3.org/2000/svg" xmlns:xlink="http://www.w3.org/1999/xlink"><style>:root>svg{display:none}:root>svg:target{display:block}</style><svg viewBox="0 0 16 26" id="arrow-control" xmlns="http://www.w3.org/2000/svg"><path d="M2 26a2.079 2.079 0 0 1-1.414-.544 1.765 1.765 0 0 1 0-2.626L11.172 13 .586 3.17a1.765 1.765 0 0 1 0-2.626c.78-.725 2.047-.725 2.828 0l12 11.143a1.764 1.764 0 0 1 0 2.626l-12 11.143C3.024 25.82 2.512 26 2 26Z"/></svg><svg viewBox="0 0 502.664 502.664" xml:space="preserve" id="icon" xmlns="http://www.w3.org/2000/svg"><path d="M153.821 358.226 0 274.337v-46.463l153.821-83.414v54.574L46.636 250.523l107.185 53.431v54.272zm26.273 29.358L282.103 115.08h32.227L212.084 387.584h-31.99zm168.749-29.358v-54.272l107.164-52.999-107.164-52.59v-53.927l153.821 83.522v46.183l-153.821 84.083z"/></svg><svg viewBox="0 0 13 13" id="tg" xmlns="http://www.w3.org/2000/svg"><path d="m.212 6.144 2.772 1.265 1.072 4.22c.07.271.34.371.519.192l1.544-1.541a.396.396 0 0 1 .562-.02l2.786 2.476c.192.17.464.042.512-.242L12.02.482c.053-.31-.196-.569-.437-.455L.209 5.396c-.28.132-.278.618.003.748Zm3.672.591L9.3 2.654c.097-.073.197.088.114.183L4.944 7.92a1.235 1.235 0 0 0-.287.679l-.153 1.38c-.02.185-.231.203-.273.025l-.586-2.518c-.067-.287.031-.594.239-.75Z"/></svg><svg viewBox="0 0 16 10" id="vk" xmlns="http://www.w3.org/2000/svg"><path d="M12.505 5.362c-.244-.328-.174-.473 0-.766.003-.003 2.014-2.96 2.221-3.962h.002c.103-.366 0-.634-.498-.634h-1.648c-.42 0-.613.23-.716.488 0 0-.84 2.136-2.026 3.52-.383.4-.56.529-.77.529-.102 0-.262-.128-.262-.494V.633C8.808.197 8.69 0 8.343 0h-2.59a.405.405 0 0 0-.42.395c0 .415.593.51.655 1.68V4.61c0 .556-.095.658-.305.658-.56 0-1.92-2.144-2.726-4.599-.162-.476-.321-.668-.744-.668H.565C.095 0 0 .23 0 .489 0 .944.56 3.209 2.605 6.2c1.362 2.043 3.281 3.15 5.027 3.15 1.049 0 1.177-.246 1.177-.669 0-1.951-.095-2.135.43-2.135.244 0 .664.128 1.643 1.113 1.12 1.168 1.304 1.691 1.93 1.691h1.648c.47 0 .708-.246.571-.73-.313-1.02-2.43-3.118-2.526-3.258Z"/></svg><svg viewBox="0 0 14 14" id="whatsapp" xmlns="http://www.w3.org/2000/svg"><path d="M7.002 0h-.004C3.138 0 0 3.14 0 7c0 1.531.493 2.95 1.333 4.103l-.873 2.6 2.69-.86A6.94 6.94 0 0 0 7.003 14C10.862 14 14 10.86 14 7s-3.139-7-6.998-7Zm4.073 9.885c-.169.477-.84.872-1.374.988-.366.078-.843.14-2.452-.527-2.057-.852-3.381-2.943-3.485-3.078-.099-.136-.831-1.107-.831-2.112 0-1.004.51-1.493.716-1.703.169-.173.448-.251.715-.251.087 0 .165.004.235.007.206.01.309.022.444.346.17.407.58 1.411.63 1.515.05.103.1.243.03.379-.066.14-.124.202-.227.32-.104.12-.202.21-.305.338-.094.112-.201.23-.082.436.119.202.53.873 1.136 1.412.781.695 1.415.918 1.641 1.012.17.07.37.053.494-.078.156-.169.35-.449.547-.724.14-.198.316-.223.502-.153.189.066 1.189.56 1.395.663.205.103.34.152.39.239.05.086.05.493-.12.97Z"/></svg><svg viewBox="0 0 16 10" id="мл" xmlns="http://www.w3.org/2000/svg"><path d="M12.505 5.362c-.244-.328-.174-.473 0-.766.003-.003 2.014-2.96 2.221-3.962h.002c.103-.366 0-.634-.498-.634h-1.648c-.42 0-.613.23-.716.488 0 0-.84 2.136-2.026 3.52-.383.4-.56.529-.77.529-.102 0-.262-.128-.262-.494V.633C8.808.197 8.69 0 8.343 0h-2.59a.405.405 0 0 0-.42.395c0 .415.593.51.655 1.68V4.61c0 .556-.095.658-.305.658-.56 0-1.92-2.144-2.726-4.599-.162-.476-.321-.668-.744-.668H.565C.095 0 0 .23 0 .489 0 .944.56 3.209 2.605 6.2c1.362 2.043 3.281 3.15 5.027 3.15 1.049 0 1.177-.246 1.177-.669 0-1.951-.095-2.135.43-2.135.244 0 .664.128 1.643 1.113 1.12 1.168 1.304 1.691 1.93 1.691h1.648c.47 0 .708-.246.571-.73-.313-1.02-2.43-3.118-2.526-3.258Z"/></svg></svg>